<svg width="698" height="500" viewBox="0 0 698 500" fill="none" xmlns="http://www.w3.org/2000/svg">
<g clip-path="url(#clip0_312_635)">
<mask id="mask0_312_635" style="mask-type:luminance" maskUnits="userSpaceOnUse" x="0" y="0" width="698" height="500">
<path d="M698 0H0V500H698V0Z" fill="white"/>
</mask>
<g mask="url(#mask0_312_635)">
<path d="M698 0H0V500H698V0Z" fill="white"/>
<path d="M156.99 77.2947H108.686V391.304H156.99V77.2947Z" fill="#5C4D7D"/>
<path d="M188.387 309.179H14.4912V260.87H188.387V309.179Z" fill="#5C4D7D"/>
<path d="M152.489 99.6613L43.0587 309.179H31.8977L14.4912 300.082V259.529L109.673 77.2947L152.489 99.6613Z" fill="#5C4D7D"/>
<path d="M204.781 423.324L177.836 414.085L207.861 293.208C216.329 287.816 223.258 280.889 229.417 273.188C231.726 270.109 230.956 264.72 227.877 262.411C224.797 260.099 219.409 260.87 217.099 263.949C204.012 281.657 183.225 291.667 161.67 291.667C157.05 291.667 153.971 294.746 153.971 299.367C153.971 303.986 157.05 307.065 161.67 307.065C170.908 307.065 180.916 305.527 189.384 302.447L162.439 409.466L107.01 390.217C107.01 389.447 107.01 389.447 107.01 388.679L81.6048 337.862H92.3828C97.0019 337.862 100.081 334.783 100.081 330.164C100.081 325.543 97.0019 322.464 92.3828 322.464H67.7475C55.4298 322.464 44.6519 317.845 36.1834 309.374C33.104 306.295 28.4848 306.295 25.4054 309.374C22.3261 312.454 22.3261 317.075 25.4054 320.155C36.1834 330.932 50.0407 337.092 64.668 337.862L86.9939 383.287C70.8269 379.44 53.8901 382.519 40.0328 392.527C24.6357 404.077 15.3975 421.014 15.3975 440.263C15.3975 473.37 41.5725 499.548 74.676 499.548H192.464C214.02 499.548 231.726 481.838 231.726 460.28C230.956 443.343 220.178 428.715 204.781 423.324ZM153.971 453.353H137.804C134.725 466.44 122.407 476.449 107.78 476.449C90.8431 476.449 76.9857 462.592 76.9857 445.652C76.9857 428.715 90.8431 414.855 107.78 414.855C122.407 414.855 133.955 424.865 137.804 437.954H153.971C158.59 437.954 161.67 441.034 161.67 445.652C161.67 450.273 158.59 453.353 153.971 453.353Z" fill="#B7094C"/>
<path d="M601.391 77.2947H553.087V391.304H601.391V77.2947Z" fill="#5C4D7D"/>
<path d="M632.789 309.179H458.893V260.87H632.789V309.179Z" fill="#5C4D7D"/>
<path d="M596.891 99.6613L487.46 309.179H476.299L458.893 300.082V259.529L554.074 77.2947L596.891 99.6613Z" fill="#5C4D7D"/>
<path d="M323.641 155.797C339.552 155.797 356.321 165.665 369.967 186.514C383.507 207.205 392.474 236.858 392.474 270.531C392.474 304.205 383.507 333.858 369.967 354.548C356.321 375.399 339.552 385.266 323.641 385.266C307.729 385.266 290.96 375.399 277.314 354.548C263.774 333.858 254.807 304.205 254.807 270.531C254.807 236.858 263.774 207.205 277.314 186.514C290.96 165.665 307.729 155.797 323.641 155.797Z" stroke="#5C4D7D" stroke-width="15"/>
<mask id="mask1_312_635" style="mask-type:luminance" maskUnits="userSpaceOnUse" x="202" y="0" width="243" height="194">
<path d="M444.401 0H202.879V193.237H444.401V0Z" fill="white"/>
</mask>
<g mask="url(#mask1_312_635)">
<path d="M215.404 76.3939C215.414 80.0939 215.487 83.791 215.542 87.4891H210.931C206.54 87.4889 202.879 90.42 202.879 93.9311C202.879 97.441 206.54 100.372 210.931 100.372H215.7C215.763 104.429 215.84 108.483 215.85 112.541C215.873 120.848 231.977 120.85 231.955 112.541C231.922 100.492 231.541 88.4442 231.508 76.392C231.486 68.0867 215.382 68.0867 215.404 76.3939Z" fill="#B7094C"/>
<path d="M392.544 62.7937C392.873 70.9833 393.158 79.1749 393.53 87.3604C346.554 86.522 299.698 91.601 252.737 89.5353C252.464 81.2171 252.123 72.8995 251.633 64.5836C251.148 56.3118 235.042 56.2732 235.53 64.5836C236.822 86.5222 237.291 108.473 237.32 130.436C237.331 138.743 253.435 138.745 253.425 130.436C253.413 121.101 253.297 111.767 253.097 102.435C300.162 104.469 347.124 99.3609 394.204 100.258C394.752 109.492 395.479 118.718 396.571 127.93C397.542 136.128 413.654 136.202 412.673 127.93C410.108 106.269 409.514 84.5295 408.647 62.7937C408.321 54.508 392.214 54.4819 392.544 62.7937Z" fill="#B7094C"/>
<path d="M434.243 86.6466C436.378 86.3831 434.301 86.628 433.908 86.6563C433.292 86.7002 432.671 86.7179 432.048 86.7403C431.587 86.756 431.123 86.748 430.657 86.7541C430.299 82.357 430.06 77.9531 430.121 73.5331C430.239 65.221 414.137 65.2292 414.018 73.5331C413.82 87.5524 416.518 101.418 417.151 115.407C417.523 123.69 433.63 123.72 433.253 115.407C433.014 110.113 432.48 104.838 431.917 99.5642C434.118 99.4819 436.306 99.3449 438.523 99.0727C442.87 98.5355 445.208 94.2331 444.148 91.1473C442.885 87.4703 438.579 86.1125 434.243 86.6466Z" fill="#B7094C"/>
</g>
<mask id="mask2_312_635" style="mask-type:luminance" maskUnits="userSpaceOnUse" x="601" y="193" width="97" height="97">
<path d="M698 193.237H601.391V289.855H698V193.237Z" fill="white"/>
</mask>
<g mask="url(#mask2_312_635)">
<path d="M691.839 199.396C683.627 191.184 670.312 191.184 662.1 199.396C662.083 199.413 662.066 199.43 662.049 199.447L641.283 220.216L638.31 217.244C636.668 215.601 634.006 215.601 632.364 217.244L602.625 246.985C600.983 248.628 600.983 251.292 602.625 252.935L614.518 264.828C616.16 266.471 618.824 266.471 620.467 264.828L650.205 235.087C651.848 233.445 651.848 230.782 650.205 229.139L647.232 226.165L656.152 217.243C656.77 221.595 658.753 225.791 662.1 229.139C665.448 232.487 669.643 234.469 673.995 235.088L665.076 244.01L662.103 241.038C660.46 239.395 657.796 239.395 656.154 241.038L626.415 270.78C624.773 272.423 624.773 275.085 626.415 276.727L638.31 288.623C639.953 290.266 642.614 290.266 644.257 288.623L673.995 258.882C675.638 257.239 675.638 254.575 673.995 252.932L671.022 249.959L691.841 229.138C700.051 220.925 700.051 207.608 691.839 199.396ZM617.491 255.906L611.547 249.959L635.337 226.167L641.283 232.113L617.491 255.906ZM641.283 279.7L635.337 273.754L659.13 249.961L665.073 255.906L641.283 279.7ZM668.049 223.19C663.129 218.271 663.122 210.3 668.022 205.37L668.049 205.345C668.051 205.342 668.054 205.339 668.056 205.336C672.986 200.418 680.968 200.42 685.893 205.345C690.82 210.272 690.82 218.263 685.893 223.19C680.966 228.118 672.976 228.118 668.049 223.19Z" fill="#B7094C"/>
</g>
</g>
</g>
<defs>
<clipPath id="clip0_312_635">
<rect width="698" height="500" fill="white"/>
</clipPath>
</defs>
</svg>
